<?xml version="1.0" encoding="UTF-8"?>
<svg xmlns="http://www.w3.org/2000/svg" version="1.1" viewBox="0 0 32 32">
  <defs>
    <style>
      .cls-1 {
        fill: #dedc00;
      }

      .cls-2 {
        fill: #1d1d1b;
      }
    </style>
  </defs>
  <!-- Generator: Adobe Illustrator 28.6.0, SVG Export Plug-In . SVG Version: 1.2.0 Build 709)  -->
  <g>
    <g id="Ebene_1">
      <rect class="cls-1" width="32" height="32"/>
      <path class="cls-2" d="M1.8,25.3l.3.5-.3.5.2.2.4-.6-.4-.6s-.2.2-.2.2ZM2.5,25.3l.3.5-.3.5.2.2.4-.6-.4-.6-.2.2Z"/>
      <path class="cls-2" d="M4.3,25.4c0-.1,0-.4,0-.4,0,0,0,.2,0,.3,0,.2.1.4.1.4h-.4c0-.1,0-.2.1-.4M3.6,26.5h.4v-.5h.7v.5h.5l-.6-1.9h-.4s-.6,1.9-.6,1.9Z"/>
      <path class="cls-2" d="M6.3,24.9c0,0,.2,0,.2,0,0,0,.1.1.1.2s0,.2,0,.2c0,0-.1,0-.3,0h-.1v-.5h.1ZM5.8,26.5h.4v-.8s0,0,0,0c0,0,.1.1.3.5,0,.1.1.2.2.3h.5s-.3-.6-.5-.7c0,0,0,0,0,0,.2,0,.4-.2.4-.5s-.2-.6-.6-.6h-.7s0,1.9,0,1.9h0Z"/>
      <polygon class="cls-2" points="7.6 24.9 8.1 24.9 8.1 26.5 8.5 26.5 8.5 24.9 9 24.9 9 24.6 7.6 24.6 7.6 24.9"/>
      <path class="cls-2" d="M10.8,26.5h.4v-1c0-.1,0-.2,0-.3,0,0,0,.2,0,.3l.3,1h.3l.3-1c0-.1,0-.2,0-.3,0,.1,0,.2,0,.3v1h.5l-.2-1.9h-.5l-.3,1c0,.1,0,.2,0,.3,0,0,0-.2,0-.3l-.2-1h-.5l-.2,1.9h0Z"/>
      <polygon class="cls-2" points="13.6 26.5 14.7 26.5 14.7 26.2 13.9 26.2 13.9 25.6 14.5 25.6 14.5 25.3 13.9 25.3 13.9 24.9 14.6 24.9 14.6 24.6 13.6 24.6 13.6 26.5"/>
      <polygon class="cls-2" points="15.3 26.5 16.5 26.5 16.5 26.2 15.7 26.2 15.7 25.6 16.3 25.6 16.3 25.3 15.7 25.3 15.7 24.9 16.4 24.9 16.4 24.6 15.3 24.6 15.3 26.5"/>
      <polygon class="cls-2" points="17 24.9 17.4 24.9 17.4 26.5 17.8 26.5 17.8 24.9 18.3 24.9 18.4 24.6 17 24.6 17 24.9"/>
      <path class="cls-2" d="M19.5,24.5c-.4,0-.7.2-.7.6s0,.2,0,.3c0,.1.2.2.4.2h.2c.2.1.2.2.2.3s-.1.3-.3.3-.3,0-.5-.2v.3c0,.1.3.2.5.2.5,0,.8-.3.8-.6s-.2-.5-.5-.6h-.2c-.2-.1-.2-.2-.2-.3s.1-.2.3-.2.3,0,.4.1l.2-.3c-.2-.1-.4-.2-.6-.2"/>
      <path class="cls-2" d="M22.2,26.2c0,.2,0,.3,0,.4,0,0-.1.2-.2.2l.2.2c.2,0,.4-.2.4-.4,0,0,0-.1,0-.4v-1.5h-.4v1.6h0Z"/>
      <path class="cls-2" d="M23.9,25.4c0-.1,0-.4,0-.4,0,0,0,.2,0,.3,0,.2.1.4.1.4h-.4c0-.1,0-.2.1-.4M23.2,26.5h.4v-.5h.7v.5h.5l-.6-1.9h-.4l-.6,1.9Z"/>
      <path class="cls-2" d="M25.3,24.9h.6c.1,0,.2,0,.2,0,0,0,0,0-.1.2l-.7,1.2v.3h1.2v-.3c0,0-.5,0-.5,0,0,0-.2,0-.2,0,0,0,0,0,0-.1l.7-1.2v-.3h-1.1v.3q0,0,0,0Z"/>
      <path class="cls-2" d="M27.1,24.9h.6c.1,0,.2,0,.2,0,0,0,0,0-.1.2l-.7,1.2v.3h1.2v-.3c0,0-.5,0-.5,0,0,0-.2,0-.2,0,0,0,0,0,0-.1l.7-1.2v-.3h-1.1v.3q0,0,0,0Z"/>
      <path class="cls-2" d="M28.9,25.8l.4.6.2-.2-.3-.5.3-.5-.2-.2-.4.6ZM29.5,25.8l.4.6.2-.2-.3-.5.3-.5-.2-.2-.4.6Z"/>
      <path class="cls-2" d="M20.1,15.2l.5-5.1h2l1,3.9c.1.6.2.8.3,1.2,0-.4.2-.8.3-1.2l1-3.8h2l.7,7.7h-1.5l-.3-4.1c0-.5,0-.8,0-1.2,0,.4-.1.7-.3,1.1l-1.2,4.2h-1.4l-1.1-4.1c0-.4-.3-1.4-.3-1.4,0,.5,0,.9,0,1.4l-.3,4h-2.2l-.5-1.8h-2.3l-.5,1.8h-1.6l2.5-7.8h1.7l1.6,5.1h0ZM17.3,13.3c-.1.6-.2.9-.4,1.4h1.5s-.3-.8-.4-1.6c0-.4-.3-1.4-.3-1.4,0,0-.2.9-.4,1.5M28.5,16.5v-6.4h1.6v6.2c0,1,0,1.2-.1,1.5-.2.9-1.1,1.5-1.8,1.8l-.7-.8c.4-.2.8-.6.9-.9.1-.3.2-.6.2-1.4"/>
    </g>
  </g>
</svg>