<?xml version="1.0" encoding="UTF-8"?>
<svg id="Layer_1" xmlns="http://www.w3.org/2000/svg" viewBox="0 0 32 32">
  <rect x="0" width="32" height="32" style="fill: #dedc00;"/>
  <path d="M12,16.74l.93-9.48h3.72l1.86,7.25c.19,1.12.37,1.49.56,2.23,0-.74.37-1.49.56-2.23l1.86-7.06h3.72l1.3,14.32h-2.79l-.56-7.62v-2.23c0,.74-.19,1.3-.56,2.05l-2.23,7.81h-2.6l-2.05-7.62c0-.74-.56-2.6-.56-2.6v2.6l-.56,7.44h-4.09l-.93-3.35h-4.28l-.93,3.35H1.41L6.05,7.08h3.16l2.97,9.48h0l-.19.19ZM6.8,13.21c-.19,1.12-.37,1.67-.74,2.6h2.79s-.56-1.49-.74-2.97c0-.74-.56-2.6-.56-2.6,0,0-.37,1.67-.74,2.79M27.62,19.16V7.26h2.97v11.53c0,1.86,0,2.23-.19,2.79-.37,1.67-2.05,2.79-3.35,3.35l-1.3-1.49s1.86-1.46,1.86-4.28Z" style="fill: #1d1d1b;"/>
</svg>