<?xml version="1.0" encoding="UTF-8"?>
<svg id="Ebene_1" xmlns="http://www.w3.org/2000/svg" viewBox="0 0 32 32">
  <rect width="32" height="32" style="fill: #dedc00;"/>
  <path d="M1.82,25.32l.32.48-.32.48.25.17.44-.65-.44-.65s-.25.17-.25.17ZM2.49,25.32l.32.48-.32.48.25.17.44-.65-.44-.65-.25.17Z" style="fill: #1d1d1b;"/>
  <path d="M4.34,25.35c.04-.14.09-.37.09-.37,0,0,.06.25.08.34.04.19.11.39.11.39h-.37c.04-.13.06-.22.1-.36M3.61,26.48h.4l.13-.45h.56l.13.45h.41l-.6-1.92h-.42s-.63,1.92-.63,1.92Z" style="fill: #1d1d1b;"/>
  <path d="M6.32,24.87c.09,0,.17,0,.22.03.09.04.14.12.14.23,0,.08-.03.15-.07.19-.05.05-.12.06-.29.06h-.13v-.52h.14ZM5.8,26.48h.38v-.8s.04,0,.06.02c.07.03.13.12.32.47.07.13.11.19.18.31h.45s-.35-.61-.46-.75c-.03-.03-.04-.05-.08-.08.24,0,.43-.24.43-.53,0-.34-.22-.56-.56-.56h-.71s0,1.92,0,1.92h0Z" style="fill: #1d1d1b;"/>
  <polygon points="7.63 24.89 8.1 24.89 8.1 26.48 8.49 26.48 8.49 24.89 8.95 24.89 9.01 24.57 7.63 24.57 7.63 24.89" style="fill: #1d1d1b;"/>
  <path d="M10.84,26.48h.39l.07-1c0-.12.01-.23.01-.34,0,0,.05.24.08.33l.27,1.01h.34l.3-1.05c.03-.12.05-.17.07-.28,0,.1,0,.19.02.31l.07,1.02h.38l-.17-1.92h-.51l-.26.95c-.03.11-.05.2-.07.3-.02-.1-.03-.15-.07-.29l-.25-.96h-.5l-.18,1.91h0Z" style="fill: #1d1d1b;"/>
  <polygon points="13.56 26.48 14.67 26.48 14.67 26.15 13.95 26.15 13.95 25.64 14.49 25.64 14.49 25.32 13.94 25.32 13.94 24.88 14.6 24.88 14.65 24.57 13.56 24.57 13.56 26.48" style="fill: #1d1d1b;"/>
  <polygon points="15.35 26.48 16.46 26.48 16.46 26.15 15.74 26.15 15.74 25.64 16.28 25.64 16.28 25.32 15.73 25.32 15.73 24.88 16.39 24.88 16.44 24.57 15.35 24.57 15.35 26.48" style="fill: #1d1d1b;"/>
  <polygon points="16.97 24.89 17.44 24.89 17.44 26.48 17.83 26.48 17.83 24.89 18.29 24.89 18.35 24.57 16.97 24.57 16.97 24.89" style="fill: #1d1d1b;"/>
  <path d="M19.51,24.51c-.41,0-.69.24-.69.59,0,.11.03.21.08.29.07.12.19.19.38.24l.21.06c.17.04.25.12.25.25,0,.17-.12.26-.34.26-.19,0-.35-.06-.53-.15l-.14.3c.19.11.44.17.65.17.48,0,.79-.26.79-.65,0-.28-.17-.49-.49-.57l-.23-.06c-.16-.04-.21-.09-.21-.19,0-.13.11-.22.27-.22.14,0,.27.04.45.15l.18-.28c-.16-.12-.4-.2-.64-.2" style="fill: #1d1d1b;"/>
  <path d="M22.25,26.15c0,.21,0,.28-.04.35-.04.08-.12.17-.22.23l.18.2c.17-.07.39-.21.45-.45.02-.08.03-.13.03-.37v-1.55h-.39v1.59h0Z" style="fill: #1d1d1b;"/>
  <path d="M23.93,25.35c.04-.14.09-.37.09-.37,0,0,.06.25.08.34.04.19.11.39.11.39h-.37c.04-.13.06-.22.1-.36M23.19,26.48h.4l.13-.45h.56l.13.45h.41l-.6-1.92h-.42l-.63,1.92Z" style="fill: #1d1d1b;"/>
  <path d="M25.3,24.89h.59c.12,0,.2-.01.2-.01,0,0-.07.09-.12.17l-.71,1.17v.27h1.2l.1-.31h-.65c-.08,0-.19,0-.19,0,0,0,.06-.07.1-.13l.71-1.2v-.28h-1.15l-.08.32h0Z" style="fill: #1d1d1b;"/>
  <path d="M27.09,24.89h.59c.12,0,.2-.01.2-.01,0,0-.07.09-.12.17l-.71,1.17v.27h1.2l.1-.31h-.65c-.08,0-.19,0-.19,0,0,0,.06-.07.1-.13l.71-1.2v-.28h-1.15l-.08.32h0Z" style="fill: #1d1d1b;"/>
  <path d="M28.85,25.8l.44.65.25-.17-.32-.48.32-.48-.25-.17-.44.65ZM29.52,25.8l.44.65.25-.17-.32-.48.32-.48-.25-.17-.44.65Z" style="fill: #1d1d1b;"/>
  <path d="M20.14,15.24l.48-5.1h2.02l1.01,3.88c.14.56.2.78.27,1.18.08-.4.16-.76.28-1.22l1.05-3.84h2.04l.69,7.75h-1.54l-.29-4.13c-.03-.49-.07-.83-.07-1.24-.09.44-.14.67-.28,1.14l-1.23,4.24h-1.37l-1.1-4.07c-.1-.38-.31-1.35-.31-1.35,0,.46-.02.89-.05,1.37l-.27,4.05h-2.17l-.55-1.84h-2.28l-.54,1.84h-1.63l2.54-7.77h1.68l1.61,5.13h0ZM17.27,13.32c-.14.56-.25.92-.41,1.44h1.52s-.26-.81-.42-1.56c-.08-.36-.31-1.37-.31-1.37,0,0-.22.92-.37,1.5M28.49,16.55v-6.41h1.58v6.24c0,1-.03,1.2-.11,1.52-.22.95-1.1,1.55-1.8,1.82l-.72-.8c.4-.25.76-.62.9-.94.12-.28.15-.59.15-1.43" style="fill: #1d1d1b;"/>
</svg>