<?xml version="1.0" encoding="UTF-8"?>
<!-- Generator: Adobe Illustrator 22.0.1, SVG Export Plug-In . SVG Version: 6.00 Build 0)  -->
<svg version="1.1" id="Ebene_1" xmlns="http://www.w3.org/2000/svg" xmlns:xlink="http://www.w3.org/1999/xlink" x="0px" y="0px" viewBox="0 0 1000 1000" style="enable-background:new 0 0 1000 1000;" xml:space="preserve">
<style type="text/css">
	.st0{fill:#DEDC00;}
	.st1{fill:#1D1D1B;}
	.st2{clip-path:url(#SVGID_2_);fill:#1D1D1B;}
	.st3{clip-path:url(#SVGID_4_);fill:#1D1D1B;}
	.st4{clip-path:url(#SVGID_6_);fill:#1D1D1B;}
	.st5{clip-path:url(#SVGID_8_);fill:#1D1D1B;}
	.st6{clip-path:url(#SVGID_10_);fill:#1D1D1B;}
	.st7{clip-path:url(#SVGID_12_);fill:#1D1D1B;}
	.st8{clip-path:url(#SVGID_14_);fill:#1D1D1B;}
	.st9{clip-path:url(#SVGID_16_);fill:#1D1D1B;}
	.st10{clip-path:url(#SVGID_18_);fill:#1D1D1B;}
</style>
<rect class="st0" width="1000" height="1000"/>
<g>
	<path class="st1" d="M57,791.2l10,14.9L57,821l7.8,5.3l13.7-20.2l-13.7-20.2L57,791.2z M77.9,791.2l10,14.9l-10,14.9l7.8,5.3   l13.7-20.2l-13.7-20.2L77.9,791.2z"/>
	<g>
		<g>
			<defs>
				<rect id="SVGID_1_" x="57" y="316.1" width="887" height="525.6"/>
			</defs>
			<clipPath id="SVGID_2_">
				<use xlink:href="#SVGID_1_" style="overflow:visible;"/>
			</clipPath>
			<path class="st2" d="M135.7,792.2c1.1-4.5,2.8-11.5,2.8-11.5s1.8,7.8,2.4,10.6c1.3,5.8,3.3,12.1,3.3,12.1h-11.7     C133.8,799.4,134.5,796.5,135.7,792.2 M112.7,827.6h12.6l4.2-14.2h17.6l4.2,14.2h12.9l-18.9-60.1h-13L112.7,827.6z"/>
		</g>
		<g>
			<defs>
				<rect id="SVGID_3_" x="57" y="316.1" width="887" height="525.6"/>
			</defs>
			<clipPath id="SVGID_4_">
				<use xlink:href="#SVGID_3_" style="overflow:visible;"/>
			</clipPath>
			<path class="st3" d="M197.4,777.3c2.9,0,5.4,0.3,6.8,0.9c2.8,1.1,4.3,3.6,4.3,7.3c0,2.5-0.9,4.7-2.3,6c-1.6,1.5-3.9,2-9,2h-4.1     l0.1-16.2H197.4z M181.3,827.6h11.8v-25c1,0.1,1.3,0.3,1.9,0.5c2.1,1,4,3.9,9.9,14.7c2.3,4.2,3.3,5.9,5.6,9.8h14.2     c0,0-10.9-19-14.4-23.3c-0.8-1-1.3-1.6-2.5-2.5c7.4-0.2,13.4-7.6,13.4-16.5c0-10.5-7-17.6-17.6-17.6l-22.3-0.1L181.3,827.6     L181.3,827.6z"/>
		</g>
	</g>
	<polygon class="st1" points="238.5,777.7 253.1,777.7 253.1,827.6 265.4,827.6 265.4,777.7 279.7,777.7 281.6,767.7 238.5,767.7     "/>
	<g>
		<g>
			<defs>
				<rect id="SVGID_5_" x="57" y="316.1" width="887" height="525.6"/>
			</defs>
			<clipPath id="SVGID_6_">
				<use xlink:href="#SVGID_5_" style="overflow:visible;"/>
			</clipPath>
			<path class="st4" d="M338.9,827.6h12.2l2.1-31.3c0.3-3.7,0.4-7.1,0.4-10.6c0,0,1.6,7.5,2.4,10.4l8.5,31.5h10.6l9.5-32.7     c1-3.6,1.5-5.3,2.2-8.8c0,3.2,0.3,5.8,0.5,9.6l2.2,32h11.9l-5.3-59.9h-15.8l-8.1,29.7c-0.9,3.5-1.5,6.3-2.2,9.4     c-0.5-3.1-0.9-4.8-2.1-9.1l-7.8-30h-15.6L338.9,827.6z"/>
		</g>
	</g>
	<polygon class="st1" points="423.6,827.6 458.5,827.6 458.5,817.2 435.8,817.2 435.8,801.2 452.8,801.2 452.8,791.4 435.6,791.4    435.6,777.5 456.1,777.5 457.7,767.7 423.6,767.7  "/>
	<polygon class="st1" points="479.6,827.6 514.5,827.6 514.5,817.2 491.8,817.2 491.8,801.2 508.8,801.2 508.8,791.4 491.7,791.4    491.7,777.5 512.2,777.5 513.7,767.7 479.6,767.7  "/>
	<polygon class="st1" points="530.4,777.7 545,777.7 545,827.6 557.3,827.6 557.3,777.7 571.6,777.7 573.5,767.7 530.4,767.7  "/>
	<g>
		<g>
			<defs>
				<rect id="SVGID_7_" x="57" y="316.1" width="887" height="525.6"/>
			</defs>
			<clipPath id="SVGID_8_">
				<use xlink:href="#SVGID_7_" style="overflow:visible;"/>
			</clipPath>
			<path class="st5" d="M609.8,765.9c-12.7,0-21.5,7.6-21.5,18.5c0,3.4,0.9,6.5,2.5,9.1c2.2,3.6,5.9,5.9,11.8,7.6l6.6,1.8     c5.3,1.4,7.8,3.9,7.8,7.8c0,5.3-3.6,8.2-10.5,8.2c-6,0-10.9-1.9-16.5-4.8l-4.5,9.4c6,3.4,13.6,5.4,20.4,5.4     c14.9,0,24.7-8,24.7-20.2c0-8.9-5.3-15.2-15.2-17.8l-7.2-2c-5-1.4-6.6-2.9-6.6-6c0-4.1,3.4-6.9,8.4-6.9c4.5,0,8.5,1.3,14,4.6     l5.7-8.6C624.6,768.1,617.2,765.9,609.8,765.9"/>
		</g>
		<g>
			<defs>
				<rect id="SVGID_9_" x="57" y="316.1" width="887" height="525.6"/>
			</defs>
			<clipPath id="SVGID_10_">
				<use xlink:href="#SVGID_9_" style="overflow:visible;"/>
			</clipPath>
			<path class="st6" d="M695.3,817.2c0,6.5-0.3,8.9-1.2,11c-1.1,2.4-3.9,5.3-7,7.2l5.6,6.2c5.4-2.1,12.2-6.7,14-14     c0.6-2.4,0.9-4,0.9-11.7v-48.3h-12.2L695.3,817.2L695.3,817.2z"/>
		</g>
		<g>
			<defs>
				<rect id="SVGID_11_" x="57" y="316.1" width="887" height="525.6"/>
			</defs>
			<clipPath id="SVGID_12_">
				<use xlink:href="#SVGID_11_" style="overflow:visible;"/>
			</clipPath>
			<path class="st7" d="M747.8,792.2c1.1-4.5,2.8-11.5,2.8-11.5s1.8,7.8,2.4,10.6c1.3,5.8,3.3,12.1,3.3,12.1h-11.7     C745.9,799.4,746.6,796.5,747.8,792.2 M724.8,827.6h12.6l4.2-14.2h17.6l4.2,14.2h12.9l-18.9-60.1h-13L724.8,827.6z"/>
		</g>
		<g>
			<defs>
				<rect id="SVGID_13_" x="57" y="316.1" width="887" height="525.6"/>
			</defs>
			<clipPath id="SVGID_14_">
				<use xlink:href="#SVGID_13_" style="overflow:visible;"/>
			</clipPath>
			<path class="st8" d="M790.7,777.7h18.4c3.6,0,6.1-0.4,6.1-0.4s-2.1,2.7-3.7,5.4l-22.1,36.5v8.4h37.4l3.1-9.8h-20.2     c-2.4,0-5.9,0.3-5.9,0.3s1.8-2.1,3.1-4.2l22.2-37.5v-8.7h-35.9L790.7,777.7z"/>
		</g>
		<g>
			<defs>
				<rect id="SVGID_15_" x="57" y="316.1" width="887" height="525.6"/>
			</defs>
			<clipPath id="SVGID_16_">
				<use xlink:href="#SVGID_15_" style="overflow:visible;"/>
			</clipPath>
			<path class="st9" d="M846.7,777.7h18.4c3.6,0,6.1-0.4,6.1-0.4s-2.1,2.7-3.7,5.4l-22.1,36.5v8.4h37.4l3.1-9.8h-20.2     c-2.4,0-5.9,0.3-5.9,0.3s1.8-2.1,3.1-4.2l22.2-37.5v-8.7h-35.9L846.7,777.7z"/>
		</g>
	</g>
	<path class="st1" d="M901.6,806.1l13.7,20.2l7.8-5.3l-10-14.9l10-14.9l-7.8-5.3L901.6,806.1z M922.5,806.1l13.7,20.2l7.8-5.3   l-10-14.9l10-14.9l-7.8-5.3L922.5,806.1z"/>
	<g>
		<g>
			<defs>
				<rect id="SVGID_17_" x="57" y="316.1" width="887" height="525.6"/>
			</defs>
			<clipPath id="SVGID_18_">
				<use xlink:href="#SVGID_17_" style="overflow:visible;"/>
			</clipPath>
			<path class="st10" d="M629.5,476.3l14.9-159.5h63.1L739.2,438c4.5,17.4,6.3,24.4,8.4,36.9c2.4-12.5,4.9-23.7,8.7-38L789,316.8     h63.8l21.6,242.1h-48.1l-9.1-129.2c-1-15.3-2.1-25.8-2.1-38.7c-2.8,13.9-4.5,20.9-8.7,35.5l-38.3,132.4h-42.9l-34.5-127.2     c-3.1-11.8-9.8-42.2-9.8-42.2c0,14.3-0.7,27.9-1.7,42.9l-8.4,126.5h-15.4h-33.7h-18.6L586,501.4h-71.1L498,558.9h-50.9     l79.4-242.8h52.6L629.5,476.3z M539.8,416.1c-4.5,17.4-7.7,28.9-12.9,44.9h47.4c0,0-8-25.4-13.2-48.8     c-2.4-11.1-9.8-42.9-9.8-42.9S544.4,397.9,539.8,416.1 M890.4,517.1V316.8h49.5v195.1c0,31.4-1,37.6-3.5,47.4     c-7,29.6-34.5,48.4-56.4,56.8L857.4,591c12.5-7.7,23.7-19.5,28.2-29.3C889.3,553,890.4,543.2,890.4,517.1"/>
		</g>
	</g>
</g>
</svg>